# xmcd
#
# Track frame offsets:
#	150
#	5922
#	18381
#	36787
#	56492
#	70354
#	82207
#	95507
#	112377
#	127114
#	142180
#	159158
#	174221
#	201477
#	212754
#
# Disc length: 3092 seconds
#
# Revision: 0
# Processed by: cddbd v1.5.2PL0 Copyright (c) Steve Scherf et al.
# Submitted via: EasyCDDAExtractor 9.1.0.1
#
DISCID=e30c120f
DTITLE=Bluesfrizz - Right Mind
DYEAR=1900
DGENRE=
TTITLE0=Snakes
TTITLE1=Good No More
TTITLE2=I Ain't Gonna Marry
TTITLE3=Hard Headed Mama Blues
TTITLE4=Right Mind
TTITLE5=Your Biscuits Are Big Enough For Me
TTITLE6=The Last Fair Deal Goin`Down
TTITLE7=Morning Rain
TTITLE8=Dirty Dozens
TTITLE9=No Lovin`Baby Now
TTITLE10=Clouds Goin`Round
TTITLE11=The Lost Soul
TTITLE12=The Elegy Of Katrina
TTITLE13=Sloop John B.
TTITLE14=Cowhide Yodel
EXTD=
EXTT0=
EXTT1=
EXTT2=
EXTT3=
EXTT4=
EXTT5=
EXTT6=
EXTT7=
EXTT8=
EXTT9=
EXTT10=
EXTT11=
EXTT12=
EXTT13=
EXTT14=
PLAYORDER=
